<?xml version="1.0" encoding="UTF-8"?>
<svg version="1.1" xmlns="http://www.w3.org/2000/svg" width="2000" height="2000">
<path d="M0 0 C8.81895968 0.01599827 17.6378954 0.01397567 26.45686603 0.01159134 C42.72392553 0.00767651 58.99094809 0.01757065 75.25799686 0.03564356 C91.33839729 0.05346285 107.4187823 0.06495508 123.49919254 0.068202 C124.50320567 0.06840822 125.50721881 0.06861444 126.54165658 0.06882691 C131.64160667 0.06984206 136.74155676 0.07074616 141.84150687 0.07160754 C177.85966808 0.07789008 213.87780926 0.09804965 249.8959592 0.12651537 C284.86275503 0.15411807 319.8295453 0.17529384 354.79634983 0.18803881 C356.99944002 0.18885074 359.20253021 0.18966285 361.4056204 0.19047515 C379.30986703 0.19704254 397.21411382 0.20316985 415.11836064 0.2091906 C497.74541769 0.23729249 580.37242239 0.29751958 662.99947483 0.35283373 C662.99947483 108.92283373 662.99947483 217.49283373 662.99947483 329.35283373 C652.30166131 330.54147968 641.65016655 331.69964513 630.93072444 332.58684824 C627.10185839 332.90457432 623.27387611 333.2327146 619.44576389 333.5593767 C618.63769637 333.62818513 617.82962884 333.69699356 616.99707443 333.7678871 C539.55676504 340.37261326 462.36581712 349.28637009 119.99947483 443.35283373 C112.45031368 453.35922635 109.92348376 461.82230483 110.99947483 474.35283373 C116.06506475 497.40581781 138.02544335 513.42313806 156.78072483 525.45048998 C160.01228115 527.49552209 163.25647234 529.51979098 166.50338108 531.54033373 C192.35644177 547.65142412 192.35644177 547.65142412 195.99947483 558.35283373 C197.39032111 564.51229585 197.14663177 568.81297528 193.99947483 574.35283373 C191.87796014 577.25077905 189.53437471 579.81260843 186.99947483 582.35283373 C186.50963108 582.85427904 186.01978733 583.35572436 185.51509983 583.87236498 C150.93599136 616.22343811 88.87949936 627.56365029 44.36318332 639.70689867 C42.10898595 640.32290742 39.85606527 640.94336648 37.60347873 641.56523608 C-20.95043254 657.69290336 -80.54057682 670.09507123 -140.00052517 682.35283373 C-140.75486088 682.50848048 -141.50919659 682.66412722 -142.28639096 682.82449053 C-177.51237991 690.08955252 -212.83516258 696.80558241 -248.21536892 703.27470873 C-248.92919114 703.40527061 -249.64301335 703.53583248 -250.37846654 703.67035077 C-264.86085728 706.31914054 -279.34429434 708.96203864 -293.83270573 711.57771663 C-338.6391746 719.66697666 -383.35311253 728.01232202 -427.50052517 739.22783373 C-428.85155659 739.56807024 -430.20267321 739.90796855 -431.5538699 740.24754809 C-452.76633145 745.58420508 -473.78369979 751.43348681 -494.6509158 757.99443529 C-499.67940747 759.57121533 -504.72101964 761.10367779 -509.76615017 762.62627123 C-510.61167447 762.88332842 -511.45719876 763.14038561 -512.328345 763.40523241 C-532.49536032 769.47042163 -552.96861333 767.33976714 -571.58255642 757.45439623 C-588.01647686 747.73768235 -600.00053841 731.93607317 -605.13748807 713.56816576 C-608.43842453 700.0760179 -607.56396105 685.8206813 -607.50489563 672.01831673 C-607.49082272 667.89797868 -607.49753222 663.77766116 -607.50102871 659.65730761 C-607.50372025 652.71948148 -607.49036982 645.7818293 -607.46707791 638.84404467 C-607.44360538 631.80588862 -607.43635146 624.76797502 -607.4465701 617.72978686 C-607.56653384 532.53596425 -600.7603576 451.53815912 -533.00052517 291.35283373 C-532.43784939 290.37572436 -531.87517361 289.39861498 -531.29544705 288.39189623 C-518.58223643 266.45428142 -504.54139589 245.39004889 -489.00052517 225.35283373 C-488.54516385 224.76002611 -488.08980252 224.1672185 -487.62064236 223.55644701 C-478.66286737 211.89737276 -469.1616069 200.72626053 -459.26541775 189.85307787 C-457.85195455 188.29273761 -456.44618758 186.72534858 -455.05228299 185.14751147 C-449.28304591 178.63463772 -443.24144112 172.43943585 -437.07987088 166.30180834 C-435.43311114 164.66043577 -433.79180422 163.01374554 -432.1509158 161.36650561 C-426.60536841 155.81751196 -420.97350775 150.44377934 -415.00052517 145.35283373 C-413.45571257 143.93959823 -411.91357193 142.52342964 -410.37552517 141.10283373 C-405.33720237 136.55680507 -400.0558585 132.3897162 -394.69583767 128.23564623 C-392.22864525 126.32164767 -389.78826623 124.3801617 -387.36771267 122.40752123 C-378.20518374 114.94533096 -368.74831209 108.03057983 -359.00052517 101.35283373 C-358.38241971 100.92792651 -357.76431424 100.50301928 -357.1274783 100.06523608 C-287.40868094 52.31807925 -207.93392263 20.54057767 -99.00052517 3.35283373 C-97.21085127 3.1269556 -97.21085127 3.1269556 -95.38502234 2.89651428 C-63.74910444 -0.84707645 -31.80022552 -0.0600063 0 0 Z " fill="#41D0FD" transform="translate(972.0005251746625,370.6471662684344)"/>
<path d="M0 0 C0.045919 41.01981433 0.0810907 82.03962527 0.10213066 123.05946023 C0.10463165 127.91773264 0.10722034 132.77600501 0.10986328 137.63427734 C0.11065021 139.084884 0.11065021 139.084884 0.11145304 140.56479584 C0.12012228 156.1611982 0.13587276 171.7575856 0.15430559 187.35397913 C0.17310207 203.39351907 0.18413717 219.43305126 0.18817699 235.47260177 C0.19090198 245.3456262 0.19946339 255.21860833 0.21583293 265.09161972 C0.2265206 271.88985456 0.22957444 278.688068 0.22700275 285.48631062 C0.22573948 289.39071977 0.22747709 293.29505579 0.23841095 297.19945145 C0.30525551 322.32800952 -0.59154049 347.35596077 -3.75 372.3125 C-3.83336609 372.97901581 -3.91673218 373.64553162 -4.00262451 374.33224487 C-14.311129 456.07823342 -42.19476638 535.14678227 -127.546875 663.24267578 C-129.63615921 665.76933367 -131.68971268 668.32467907 -133.75 670.875 C-137.33873611 675.25904209 -141.07335804 679.48604434 -144.890625 683.671875 C-146.75675567 685.73153033 -148.57069788 687.82388895 -150.375 689.9375 C-153.75882037 693.83521833 -157.41259015 697.44510928 -161.08666992 701.06518555 C-163.41623607 703.37215414 -165.65653326 705.67514725 -167.6875 708.25 C-170.16282545 711.19363026 -172.84079006 713.52926009 -175.76171875 716.015625 C-178.28090899 718.24904322 -180.63592043 720.60323731 -183 723 C-187.17886124 727.21685089 -191.48324764 731.15268112 -196 735 C-197.00473049 735.87926737 -198.0085623 736.75956223 -199.01171875 737.640625 C-207.36463138 744.93997318 -216.02225455 751.75163321 -224.89160156 758.41064453 C-226.90337789 759.9271642 -228.9024846 761.45883495 -230.8984375 762.99609375 C-253.85288468 780.58896081 -278.57616306 795.88727973 -304.09521484 809.45092773 C-306.23065611 810.58972206 -308.36038334 811.73924766 -310.48681641 812.89477539 C-319.05512437 817.53977878 -327.7319168 821.82184221 -336.625 825.8125 C-337.28375122 826.10925629 -337.94250244 826.40601257 -338.62121582 826.71176147 C-352.85052173 833.10211616 -367.30999914 838.74868246 -382 844 C-383.08071777 844.38994141 -384.16143555 844.77988281 -385.27490234 845.18164062 C-399.64413197 850.32085634 -414.19230676 854.54028071 -428.9375 858.4375 C-430.15613235 858.76102951 -430.15613235 858.76102951 -431.39938354 859.09109497 C-470.41084928 869.39433997 -504.4520415 865.12876372 -540.8125 848.6875 C-542.3818447 847.98315524 -543.95126359 847.27897576 -545.52075195 846.57495117 C-578.44506415 831.7654937 -610.74506382 816.12160631 -642 798 C-642.82741699 797.52272461 -643.65483398 797.04544922 -644.50732422 796.55371094 C-675.97094524 778.33026531 -706.68998441 757.40695007 -733.28125 732.53125 C-735.76927988 730.21480839 -738.31082129 727.98116849 -740.875 725.75 C-753.06197739 714.7524716 -763.38795841 702.26347235 -773 689 C-773.44827148 688.3925293 -773.89654297 687.78505859 -774.35839844 687.15917969 C-786.67485642 670.34875293 -795.01100649 651.17436382 -800 631 C-800.25265625 630.00355469 -800.5053125 629.00710938 -800.765625 627.98046875 C-806.67509962 600.50141178 -801.22443046 571.90114573 -789 547 C-788.69723145 546.3714209 -788.39446289 545.7428418 -788.08251953 545.09521484 C-783.12483913 534.90428155 -776.99935574 525.89367678 -770 517 C-769.19304688 515.96746094 -768.38609375 514.93492187 -767.5546875 513.87109375 C-755.9598491 499.6410648 -742.65048523 486.07886072 -728 475 C-727.10796875 474.27941406 -726.2159375 473.55882812 -725.296875 472.81640625 C-689.23183911 444.06822973 -646.88311716 422.57582713 -604 406 C-602.22375244 405.30898193 -602.22375244 405.30898193 -600.41162109 404.60400391 C-585.81402751 398.9686355 -571.07190358 393.93113157 -556.125 389.3125 C-555.45113251 389.10196991 -554.77726501 388.89143982 -554.08297729 388.67453003 C-526.92725265 380.23537659 -499.04183763 374.36458217 -471.25506592 368.44680786 C-462.11514916 366.49928455 -452.9810473 364.52474401 -443.84765625 362.546875 C-442.94332352 362.35106905 -442.03899078 362.1552631 -441.10725403 361.95352364 C-329.8016625 338.23889343 -329.8016625 338.23889343 -225 295 C-224.10643799 294.52530273 -224.10643799 294.52530273 -223.19482422 294.04101562 C-199.63323837 281.38412451 -178.93662665 265.47985494 -170.3984375 239.14453125 C-167.05671118 221.15818076 -173.21358339 204.80695748 -183 190 C-185.51097899 186.51638883 -188.18071545 183.2375599 -191 180 C-191.92619141 178.90945313 -191.92619141 178.90945313 -192.87109375 177.796875 C-196.53482498 173.59751055 -200.35647 169.62585287 -204.328125 165.71875 C-205.11461426 164.94337891 -205.90110352 164.16800781 -206.71142578 163.36914062 C-208.28048177 161.82897076 -209.85663003 160.29598156 -211.44091797 158.77148438 C-222.98337806 147.46152348 -231.63694385 134.20150964 -232.375 117.75 C-232.11030777 106.61735627 -227.96902748 97.49306928 -221 89 C-220.01193359 87.76830078 -220.01193359 87.76830078 -219.00390625 86.51171875 C-173.2125311 32.48629816 -75.40212318 16.70017374 -10.16015625 1.80078125 C-8.96016495 1.52512329 -8.96016495 1.52512329 -7.7359314 1.24389648 C-2.23768139 0 -2.23768139 0 0 0 Z " fill="#07589C" transform="translate(1635,764)"/>
<path d="M0 0 C0 32.34 0 64.68 0 98 C-7.92 100.97 -15.84 103.94 -24 107 C-53.67899306 119.79573353 -89.82118865 135.85350021 -103.94140625 167.08203125 C-107.59508373 178.80956946 -105.071922 190.93041598 -99.71484375 201.546875 C-95.10713667 209.81251109 -88.72419362 216.33736727 -82.02734375 222.91796875 C-63.155163 241.46542574 -43.76767937 262.88336766 -42.625 290.75 C-42.99529268 307.73989959 -51.42075179 321.2139795 -63 333 C-63.51941162 333.54422607 -64.03882324 334.08845215 -64.57397461 334.64916992 C-68.61180595 338.81202911 -72.8138166 342.36405225 -77.5625 345.6875 C-78.28719482 346.19514893 -79.01188965 346.70279785 -79.75854492 347.22583008 C-116.9781359 372.68526822 -162.7164657 387.52537237 -205.88671875 399.15283203 C-209.02451967 400.00667215 -212.1535879 400.88712564 -215.28125 401.77734375 C-244.88587785 410.20327629 -274.83542449 417.06024778 -304.92172241 423.5199585 C-315.64199259 425.82216202 -326.33772649 428.20332041 -337.01318359 430.70654297 C-343.41612148 432.19824519 -349.83070726 433.62472789 -356.2578125 435.0078125 C-357.07086853 435.18278259 -357.88392456 435.35775269 -358.72161865 435.5380249 C-362.73395712 436.40003569 -366.74724239 437.25737874 -370.76171875 438.109375 C-380.56572003 440.19916987 -390.2895646 442.51312031 -400 445 C-402.36065418 445.59384107 -404.72133043 446.1875944 -407.08203125 446.78125 C-409.32569258 447.35349369 -411.56918435 447.92640265 -413.8125 448.5 C-414.93591797 448.78230469 -416.05933594 449.06460937 -417.21679688 449.35546875 C-423.47735195 450.96148462 -429.51601226 452.82408518 -435.5637207 455.10302734 C-438.73791647 456.27168104 -441.92265557 457.17835104 -445.1875 458.0625 C-450.24737843 459.43496994 -455.11229152 461.11698332 -460 463 C-461.88656581 463.7100419 -463.77329801 464.4196418 -465.66015625 465.12890625 C-518.60652535 485.1895636 -571.69783442 510.24441862 -613.76953125 548.953125 C-615.83296274 550.84671187 -617.93574581 552.67826164 -620.0625 554.5 C-628.23592 561.65584562 -635.2722579 569.48502354 -642 578 C-642.79277344 578.96421875 -643.58554687 579.9284375 -644.40234375 580.921875 C-668.00874703 610.30867719 -678.87861518 644.88645736 -675.79785156 682.46582031 C-675.25359866 686.76028379 -674.20612746 690.84963746 -673 695 C-672.81195801 695.69754395 -672.62391602 696.39508789 -672.43017578 697.11376953 C-665.76868082 721.69823663 -653.47041559 743.641116 -637 763 C-636.13479139 764.04896373 -635.27025571 765.09848274 -634.40625 766.1484375 C-628.81291891 772.87713418 -622.9338301 779.24645254 -616.75 785.4375 C-616.10095703 786.08734863 -615.45191406 786.73719727 -614.78320312 787.40673828 C-588.57840879 813.31223928 -557.49995026 834.15387591 -526 853 C-530.43424084 854.47808028 -533.42739511 852.30481649 -537.4609375 850.43359375 C-538.31054047 850.04841583 -539.16014343 849.66323792 -540.03549194 849.26638794 C-542.82008863 848.00024289 -545.59767865 846.71951643 -548.375 845.4375 C-550.29441394 844.55876486 -552.21401138 843.68043042 -554.13378906 842.80249023 C-576.23579344 832.66995565 -598.14635245 822.32034036 -619.38037109 810.45019531 C-622.01770035 808.9902013 -624.67095626 807.56463608 -627.33203125 806.1484375 C-665.09145023 786.00211459 -701.94255535 761.84809338 -733.28125 732.53125 C-735.76927988 730.21480839 -738.31082129 727.98116849 -740.875 725.75 C-753.06197739 714.7524716 -763.38795841 702.26347235 -773 689 C-773.44827148 688.3925293 -773.89654297 687.78505859 -774.35839844 687.15917969 C-786.67485642 670.34875293 -795.01100649 651.17436382 -800 631 C-800.25265625 630.00355469 -800.5053125 629.00710938 -800.765625 627.98046875 C-806.67509962 600.50141178 -801.22443046 571.90114573 -789 547 C-788.69723145 546.3714209 -788.39446289 545.7428418 -788.08251953 545.09521484 C-783.12483913 534.90428155 -776.99935574 525.89367678 -770 517 C-769.19304688 515.96746094 -768.38609375 514.93492187 -767.5546875 513.87109375 C-755.9598491 499.6410648 -742.65048523 486.07886072 -728 475 C-727.10796875 474.27941406 -726.2159375 473.55882812 -725.296875 472.81640625 C-689.23183911 444.06822973 -646.88311716 422.57582713 -604 406 C-602.22375244 405.30898193 -602.22375244 405.30898193 -600.41162109 404.60400391 C-585.81402751 398.9686355 -571.07190358 393.93113157 -556.125 389.3125 C-555.45113251 389.10196991 -554.77726501 388.89143982 -554.08297729 388.67453003 C-526.92725265 380.23537659 -499.04183763 374.36458217 -471.25506592 368.44680786 C-462.11514916 366.49928455 -452.9810473 364.52474401 -443.84765625 362.546875 C-442.94332352 362.35106905 -442.03899078 362.1552631 -441.10725403 361.95352364 C-329.8016625 338.23889343 -329.8016625 338.23889343 -225 295 C-224.10643799 294.52530273 -224.10643799 294.52530273 -223.19482422 294.04101562 C-199.63323837 281.38412451 -178.93662665 265.47985494 -170.3984375 239.14453125 C-167.05671118 221.15818076 -173.21358339 204.80695748 -183 190 C-185.51097899 186.51638883 -188.18071545 183.2375599 -191 180 C-191.92619141 178.90945313 -191.92619141 178.90945313 -192.87109375 177.796875 C-196.53482498 173.59751055 -200.35647 169.62585287 -204.328125 165.71875 C-205.11461426 164.94337891 -205.90110352 164.16800781 -206.71142578 163.36914062 C-208.28048177 161.82897076 -209.85663003 160.29598156 -211.44091797 158.77148438 C-222.98337806 147.46152348 -231.63694385 134.20150964 -232.375 117.75 C-232.11030777 106.61735627 -227.96902748 97.49306928 -221 89 C-220.01193359 87.76830078 -220.01193359 87.76830078 -219.00390625 86.51171875 C-173.2125311 32.48629816 -75.40212318 16.70017374 -10.16015625 1.80078125 C-8.96016495 1.52512329 -8.96016495 1.52512329 -7.7359314 1.24389648 C-2.23768139 0 -2.23768139 0 0 0 Z " fill="#064479" transform="translate(1635,764)"/>
</svg>
